<svg xmlns="http://www.w3.org/2000/svg" xmlns:xlink="http://www.w3.org/1999/xlink" width="100" height="108" version="1.1" viewBox="0 0 100 108"><title>patterns</title><g id="patterns" fill="none" fill-rule="evenodd" stroke="none" stroke-width="1"><g id="Group" transform="translate(12.000000, 5.000000)"><polyline id="Fill-78" fill="#C2CAD2" points="26 5 26 16.037 0 42 0 30.963 26 5" opacity=".3"/><polyline id="Fill-79" fill="#C2CAD2" points="49.11 3.211 49.11 16.861 17 48.971 17 35.321 49.11 3.211" opacity=".3"/><polyline id="Fill-80" fill="#8696A6" points="33 4 33 15.037 7 41 7 29.963 33 4" opacity=".25"/><polyline id="Fill-81" fill="#8696A6" points="58.676 .411 58.676 14.061 26.566 46.171 26.566 32.521 58.676 .411" opacity=".25"/></g><g id="Group" transform="translate(15.000000, 47.000000)"><polygon id="Fill-78" fill="#C2CAD2" points="30 18.125 0 49 0 35.875 30 5" opacity=".3"/><polyline id="Fill-79" fill="#C2CAD2" points="58 3 58 19.108 20 57 20 40.892 58 3" opacity=".3"/><polyline id="Fill-80" fill="#8696A6" points="39 4 39 17.125 9 48 9 34.875 39 4" opacity=".251"/><polyline id="Fill-81" fill="#8696A6" points="70 0 70 16.108 32 54 32 37.892 70 0" opacity=".251"/></g></g></svg>